<svg xmlns="http://www.w3.org/2000/svg" shape-rendering="geometricPrecision" text-rendering="geometricPrecision" image-rendering="optimizeQuality" fill-rule="evenodd" clip-rule="evenodd" viewBox="0 0 512 498.69"><path fill-rule="nonzero" d="M36.73 167.38c-.16-2.77.23-5.62 1.26-8.39 17.9-47.75 49.7-87.54 89.82-115.34C167.89 15.87 216.21 0 267.22 0c67.59 0 128.79 27.41 173.08 71.7 44.29 44.29 71.7 105.49 71.7 173.08 0 59.87-21.61 114.81-57.47 157.43-36.4 43.27-87.48 73.76-145.52 83.76-5.45.93-10.77-.37-15.02-3.25 6-11.45 9.57-24.65 9.41-37.66 47.75-8.56 89.72-33.74 119.66-69.33 29.7-35.32 47.61-81 47.61-130.95 0-56.18-22.78-107.05-59.59-143.86-36.81-36.81-87.68-59.59-143.86-59.59-42.53 0-82.74 13.17-116 36.22-31.13 21.57-56.22 51.79-71.51 87.93-14.23-2.28-29.04-1.95-42.98 1.9zm172.96 63.33v81.06h12.66c4.51 0 7.6-.55 9.26-1.64 1.67-1.1 2.5-3.6 2.5-7.52v-71.9h35.64v60.67c0 9.79-.65 17.68-1.96 23.67-1.31 5.99-3.74 11.06-7.31 15.21-3.56 4.15-8.43 7.03-14.61 8.64-6.18 1.61-14.2 2.42-24.06 2.42s-17.85-.81-23.97-2.42c-6.11-1.61-10.96-4.49-14.52-8.64-3.56-4.15-6-9.22-7.31-15.21-1.3-5.99-1.96-13.88-1.96-23.67v-60.67h35.64zm77.44 106.12 4.99-28.52c10.92 2.65 20.76 3.98 29.49 3.98 8.73 0 15.77-.35 21.12-1.04v-8.64l-16.04-1.38c-14.5-1.27-24.45-4.64-29.85-10.11-5.41-5.48-8.11-13.57-8.11-24.29 0-14.74 3.3-24.88 9.89-30.41 6.59-5.53 17.79-8.3 33.59-8.3 15.8 0 30.06 1.44 42.77 4.32l-4.45 27.65c-11.05-1.72-19.9-2.59-26.56-2.59-6.65 0-12.29.29-16.93.87v8.46l12.84 1.21c15.56 1.5 26.31 5.1 32.25 10.8 5.94 5.71 8.91 13.63 8.91 23.77 0 7.26-1.01 13.39-3.03 18.4-2.02 5.02-4.42 8.82-7.22 11.41-2.79 2.59-6.74 4.58-11.85 5.96-5.11 1.39-9.59 2.22-13.45 2.51-3.86.29-9 .43-15.42.43-15.44 0-29.76-1.5-42.94-4.49zm-69.39-157.22 1.5 16.79c-4.2 1.74-9.46 2.61-15.8 2.61-6.33 0-11.41-.67-15.25-2.01-3.83-1.33-6.85-3.42-9.05-6.29-2.19-2.87-3.73-6.24-4.6-10.1-.86-3.87-1.3-8.64-1.3-14.3 0-5.67.44-10.45 1.3-14.35.87-3.9 2.41-7.28 4.6-10.15 4.27-5.53 12.1-8.3 23.5-8.3 2.53 0 5.52.25 8.95.75 3.44.5 5.98 1.12 7.65 1.85l-3 15.3c-4.33-.93-8.3-1.4-11.9-1.4-3.6 0-6.1.33-7.5 1-1.4.67-2.1 2-2.1 4v26.2c2.6.53 5.24.8 7.9.8 5.67 0 10.7-.8 15.1-2.4zm26.4 17.9h-21.1l16.2-62.5h30.9l16.19 62.5h-21.09l-2.3-9.9h-16.5l-2.3 9.9zm8.02-43.3-3.7 17.5h12.36l-3.61-17.5h-5.05zm80.97 43.3h-39.99v-62.5h19.99v46.5h20v16zm48.5 0h-40v-62.5h20v46.5h20v16zM75.95 321.96c7.32 16.75 16.05 33.02 27.72 48.37 12.68 16.73 29 32.47 50.82 46.77 4.13 2.62 8.68-.75 11.91-3.35 1.89-1.53 4.31-4.02 6.88-6.77 10.14-10.72 22.7-24.01 37.43-15.08.32.19.57.41.89.6l48.52 35.39c.15.1.31.3.46.4 6.32 5.43 8.34 12.99 7.52 21.18-2.24 20.63-18.43 37.82-37.64 44.14-10.12 3.38-21.11 4.61-31.59 5-16.45.63-31.46-2.54-46.45-9-14.66-6.35-29.09-15.75-44.66-27.88l-1.15-.92c-7.15-5.61-14.86-11.63-22.31-18.54-27.3-25.68-54.03-61.36-69.87-99.14-13.29-31.71-18.8-65-10.52-95.25 4.57-16.58 13.48-31.15 27.2-39.91 11.97-7.68 27.32-10.92 46.32-7.13 2.19.4 4.02 1.9 4.84 3.9l27.07 59.7c4.17 6.82 4.1 13.11.77 19.07-2.76 4.88-7.71 9.09-14.25 12.84-1.95 1.33-4.25 2.64-6.65 4.03-5.93 3.39-12.47 7.17-14.61 12.02-1.72 3.89-.2 6.01 1.35 9.56z"/></svg>